<svg width="512" height="512" viewBox="0 0 512 512" fill="none" xmlns="http://www.w3.org/2000/svg">
  <rect width="512" height="512" rx="112" fill="#FFF8EC"/>
  <path d="M86 172C86 150.461 103.461 133 125 133H174L197 96H315L338 133H387C408.539 133 426 150.461 426 172V360C426 381.539 408.539 399 387 399H125C103.461 399 86 381.539 86 360V172Z" fill="#546B41"/>
  <circle cx="256" cy="269" r="86" fill="#FFF8EC"/>
  <circle cx="256" cy="269" r="48" fill="#99AD7A"/>
  <circle cx="256" cy="269" r="22" fill="#546B41"/>
  <rect x="121" y="181" width="70" height="34" rx="17" fill="#DCCCAC"/>
  <path d="M363 87C384 109 396 132 397 158C370 156 347 143 326 121C347 118 360 106 363 87Z" fill="#99AD7A"/>
  <path d="M155 420C188 392 223 383 260 394C302 407 335 398 374 363" stroke="#99AD7A" stroke-width="22" stroke-linecap="round"/>
</svg>
